<svg id="608bbbfb-a8b3-4375-86bb-fa57f506bda8" data-name="Livello 1" xmlns="http://www.w3.org/2000/svg" xmlns:xlink="http://www.w3.org/1999/xlink" viewBox="0 0 1024 1024">
  <defs>
    <clipPath id="bb4dcbe2-d538-4eb5-8b83-6f93b2eb6edd">
      <path d="M-595.57-39.09l502.18,1.15C-51.87-37.87-20.6-40,.08-4L415,505.17,0,1030c-20.81,35.87-54.08,33.84-95.56,33.75l-502.18-1.14a116.24,116.24,0,0,1-100.53-58.33L-948.44,569a116,116,0,0,1,.3-116L-696.23,18.88A116.11,116.11,0,0,1-595.57-39.09Z" style="fill: none;clip-rule: evenodd"/>
    </clipPath>
    <clipPath id="b9bd6584-c073-46d5-8e4d-59de7e443dd3">
      <rect width="1024" height="1024" style="fill: none"/>
    </clipPath>
    <clipPath id="b1770d0e-6b17-499f-bc01-0ae87c6b3a8f">
      <path d="M-595.57-39.09l502.18,1.15C-51.87-37.87-20.6-36,.08,0L395,505.17,0,1024c-20.81,35.87-54.08,39.84-95.56,39.75l-502.18-1.14a116.24,116.24,0,0,1-100.53-58.33L-948.44,569a116,116,0,0,1,.3-116L-696.23,18.88A116.11,116.11,0,0,1-595.57-39.09Z" style="fill: none;clip-rule: evenodd"/>
    </clipPath>
    <clipPath id="7e5ec0be-de4b-49f0-8f18-1717bb13dab5">
      <rect width="395" height="1024" style="fill: none"/>
    </clipPath>
    <clipPath id="f4f532cf-934c-4178-8881-3c57b2eb20b0">
      <rect x="-1055.06" y="-203.48" width="1501.92" height="1468.45" transform="translate(-629.95 13.07) rotate(-62)" style="fill: none"/>
    </clipPath>
  </defs>
  <title>export</title>
  <g style="clip-path: url(#bb4dcbe2-d538-4eb5-8b83-6f93b2eb6edd)">
    <g style="clip-path: url(#b9bd6584-c073-46d5-8e4d-59de7e443dd3)">
      <rect x="-923.46" y="-86.16" width="1256.43" height="1238.1" transform="translate(-627.15 22.03) rotate(-62)" style="fill: #f7f7f7"/>
    </g>
  </g>
  <g style="clip-path: url(#b1770d0e-6b17-499f-bc01-0ae87c6b3a8f)">
    <g style="clip-path: url(#b9bd6584-c073-46d5-8e4d-59de7e443dd3)">
      <g style="isolation: isolate">
        <g style="clip-path: url(#7e5ec0be-de4b-49f0-8f18-1717bb13dab5)">
          <g style="clip-path: url(#7e5ec0be-de4b-49f0-8f18-1717bb13dab5)">
            <g style="clip-path: url(#7e5ec0be-de4b-49f0-8f18-1717bb13dab5)">
              <image width="790" height="2048" transform="scale(0.5)" xlink:href="export1.png"/>
            </g>
          </g>
        </g>
      </g>
    </g>
  </g>
  <g style="clip-path: url(#7e5ec0be-de4b-49f0-8f18-1717bb13dab5)">
    <image width="395" height="1024" href=""/>
  </g>
</svg>
